<?xml version="1.0" encoding="UTF-8" standalone="no"?>
<!DOCTYPE svg PUBLIC "-//W3C//DTD SVG 1.1//EN"
 "http://www.w3.org/Graphics/SVG/1.1/DTD/svg11.dtd">
<!-- Generated by graphviz version 2.40.1 (20161225.0304)
 -->
<!-- Title: state transitions Pages: 1 -->
<svg width="303pt" height="434pt"
 viewBox="0.00 0.00 303.03 434.00" xmlns="http://www.w3.org/2000/svg" xmlns:xlink="http://www.w3.org/1999/xlink">
<g id="graph0" class="graph" transform="scale(1 1) rotate(0) translate(4 430)">
<title>state transitions</title>
<polygon fill="#ffffff" stroke="transparent" points="-4,4 -4,-430 299.027,-430 299.027,4 -4,4"/>
<g id="clust1" class="cluster">
<title>cluster_SquatState</title>
<path fill="none" stroke="#000000" stroke-width="2" d="M20,-8C20,-8 254,-8 254,-8 260,-8 266,-14 266,-20 266,-20 266,-406 266,-406 266,-412 260,-418 254,-418 254,-418 20,-418 20,-418 14,-418 8,-412 8,-406 8,-406 8,-20 8,-20 8,-14 14,-8 20,-8"/>
<text text-anchor="start" x="107.818" y="-399.2" font-family="Helvetica,sans-Serif" font-size="12.00" fill="#000000">SquatState</text>
</g>
<!-- SquatState -->
<!-- wait_rx_valid -->
<g id="node2" class="node">
<title>wait_rx_valid</title>
<polygon fill="transparent" stroke="transparent" stroke-width="2" points="195.5,-380 104.5,-380 104.5,-344 195.5,-344 195.5,-380"/>
<text text-anchor="start" x="115.8326" y="-358.2" font-family="Helvetica,sans-Serif" font-size="12.00" fill="#000000">wait_rx_valid</text>
<path fill="none" stroke="#000000" stroke-width="2" d="M116.8333,-345C116.8333,-345 183.1667,-345 183.1667,-345 188.8333,-345 194.5,-350.6667 194.5,-356.3333 194.5,-356.3333 194.5,-367.6667 194.5,-367.6667 194.5,-373.3333 188.8333,-379 183.1667,-379 183.1667,-379 116.8333,-379 116.8333,-379 111.1667,-379 105.5,-373.3333 105.5,-367.6667 105.5,-367.6667 105.5,-356.3333 105.5,-356.3333 105.5,-350.6667 111.1667,-345 116.8333,-345"/>
</g>
<!-- wait_fwdlkp -->
<g id="node3" class="node">
<title>wait_fwdlkp</title>
<polygon fill="transparent" stroke="transparent" stroke-width="2" points="100,-298 16,-298 16,-262 100,-262 100,-298"/>
<text text-anchor="start" x="26.998" y="-276.2" font-family="Helvetica,sans-Serif" font-size="12.00" fill="#000000">wait_fwdlkp</text>
<path fill="none" stroke="#000000" stroke-width="2" d="M28.3333,-263C28.3333,-263 87.6667,-263 87.6667,-263 93.3333,-263 99,-268.6667 99,-274.3333 99,-274.3333 99,-285.6667 99,-285.6667 99,-291.3333 93.3333,-297 87.6667,-297 87.6667,-297 28.3333,-297 28.3333,-297 22.6667,-297 17,-291.3333 17,-285.6667 17,-285.6667 17,-274.3333 17,-274.3333 17,-268.6667 22.6667,-263 28.3333,-263"/>
</g>
<!-- wait_rx_valid&#45;&gt;wait_fwdlkp -->
<g id="edge1" class="edge">
<title>wait_rx_valid&#45;&gt;wait_fwdlkp</title>
<path fill="none" stroke="#000000" d="M104.3376,-350.483C83.1924,-344.1351 61.3943,-335.7748 55.282,-327 51.5418,-321.6305 50.4068,-315.0225 50.6135,-308.4759"/>
<polygon fill="#000000" stroke="#000000" points="54.1024,-308.7807 51.8608,-298.4257 47.1557,-307.9185 54.1024,-308.7807"/>
<text text-anchor="start" x="55" y="-318" font-family="Helvetica,sans-Serif" font-size="10.00" fill="#000000">|rxreq_arb &#160;&#160;</text>
</g>
<!-- wait_fwdlkp&#45;&gt;wait_rx_valid -->
<g id="edge2" class="edge">
<title>wait_fwdlkp&#45;&gt;wait_rx_valid</title>
<path fill="none" stroke="#000000" d="M87.9171,-298.1048C95.4294,-303.1885 103.2637,-308.983 110,-315 116.8923,-321.1564 123.6809,-328.4994 129.6532,-335.5307"/>
<polygon fill="#000000" stroke="#000000" points="127.1927,-338.0493 136.2465,-343.5519 132.6003,-333.6042 127.1927,-338.0493"/>
<text text-anchor="start" x="122" y="-318" font-family="Helvetica,sans-Serif" font-size="10.00" fill="#000000">nni_hec_err &#160;&#160;</text>
</g>
<!-- tx_checksum -->
<g id="node4" class="node">
<title>tx_checksum</title>
<polygon fill="transparent" stroke="transparent" stroke-width="2" points="117,-216 25,-216 25,-180 117,-180 117,-216"/>
<text text-anchor="start" x="35.9936" y="-194.2" font-family="Helvetica,sans-Serif" font-size="12.00" fill="#000000">tx_checksum</text>
<path fill="none" stroke="#000000" stroke-width="2" d="M37.3333,-181C37.3333,-181 104.6667,-181 104.6667,-181 110.3333,-181 116,-186.6667 116,-192.3333 116,-192.3333 116,-203.6667 116,-203.6667 116,-209.3333 110.3333,-215 104.6667,-215 104.6667,-215 37.3333,-215 37.3333,-215 31.6667,-215 26,-209.3333 26,-203.6667 26,-203.6667 26,-192.3333 26,-192.3333 26,-186.6667 31.6667,-181 37.3333,-181"/>
</g>
<!-- wait_fwdlkp&#45;&gt;tx_checksum -->
<g id="edge3" class="edge">
<title>wait_fwdlkp&#45;&gt;tx_checksum</title>
<path fill="none" stroke="#000000" d="M54.232,-261.9657C53.0048,-253.1441 52.4339,-242.4222 54.539,-233 55.0702,-230.6224 55.7815,-228.2157 56.6111,-225.8359"/>
<polygon fill="#000000" stroke="#000000" points="59.9471,-226.9271 60.5297,-216.3483 53.4773,-224.2548 59.9471,-226.9271"/>
<text text-anchor="start" x="54" y="-236" font-family="Helvetica,sans-Serif" font-size="10.00" fill="#000000">not (nni_hec_err) &#160;&#160;</text>
</g>
<!-- wait_tx_ready -->
<g id="node5" class="node">
<title>wait_tx_ready</title>
<polygon fill="transparent" stroke="transparent" stroke-width="2" points="170,-134 74,-134 74,-98 170,-98 170,-134"/>
<text text-anchor="start" x="84.9926" y="-112.2" font-family="Helvetica,sans-Serif" font-size="12.00" fill="#000000">wait_tx_ready</text>
<path fill="none" stroke="#000000" stroke-width="2" d="M86.3333,-99C86.3333,-99 157.6667,-99 157.6667,-99 163.3333,-99 169,-104.6667 169,-110.3333 169,-110.3333 169,-121.6667 169,-121.6667 169,-127.3333 163.3333,-133 157.6667,-133 157.6667,-133 86.3333,-133 86.3333,-133 80.6667,-133 75,-127.3333 75,-121.6667 75,-121.6667 75,-110.3333 75,-110.3333 75,-104.6667 80.6667,-99 86.3333,-99"/>
</g>
<!-- tx_checksum&#45;&gt;wait_tx_ready -->
<g id="edge4" class="edge">
<title>tx_checksum&#45;&gt;wait_tx_ready</title>
<path fill="none" stroke="#000000" d="M82.3186,-179.8015C89.0534,-168.973 97.7234,-155.033 105.2405,-142.9466"/>
<polygon fill="#000000" stroke="#000000" points="108.4037,-144.4877 110.7131,-134.1476 102.4596,-140.7907 108.4037,-144.4877"/>
<text text-anchor="middle" x="100.3895" y="-154" font-family="Helvetica,sans-Serif" font-size="10.00" fill="#000000"> </text>
</g>
<!-- wait_tx_ready&#45;&gt;wait_rx_valid -->
<g id="edge6" class="edge">
<title>wait_tx_ready&#45;&gt;wait_rx_valid</title>
<path fill="none" stroke="#000000" d="M130.2233,-134.1577C145.3037,-168.5663 176.8575,-246.0076 188,-315 188.8503,-320.2651 190.1417,-322.1156 188,-327 186.5885,-330.2189 184.7188,-333.2725 182.5641,-336.1359"/>
<polygon fill="#000000" stroke="#000000" points="179.8912,-333.8749 175.8813,-343.6816 185.1315,-338.516 179.8912,-333.8749"/>
<text text-anchor="start" x="171" y="-236" font-family="Helvetica,sans-Serif" font-size="10.00" fill="#000000">not (|forward) &#160;&#160;</text>
</g>
<!-- wait_tx_fwd -->
<g id="node6" class="node">
<title>wait_tx_fwd</title>
<polygon fill="transparent" stroke="transparent" stroke-width="2" points="200,-52 116,-52 116,-16 200,-16 200,-52"/>
<text text-anchor="start" x="126.662" y="-30.2" font-family="Helvetica,sans-Serif" font-size="12.00" fill="#000000">wait_tx_fwd</text>
<path fill="none" stroke="#000000" stroke-width="2" d="M128.3333,-17C128.3333,-17 187.6667,-17 187.6667,-17 193.3333,-17 199,-22.6667 199,-28.3333 199,-28.3333 199,-39.6667 199,-39.6667 199,-45.3333 193.3333,-51 187.6667,-51 187.6667,-51 128.3333,-51 128.3333,-51 122.6667,-51 117,-45.3333 117,-39.6667 117,-39.6667 117,-28.3333 117,-28.3333 117,-22.6667 122.6667,-17 128.3333,-17"/>
</g>
<!-- wait_tx_ready&#45;&gt;wait_tx_fwd -->
<g id="edge5" class="edge">
<title>wait_tx_ready&#45;&gt;wait_tx_fwd</title>
<path fill="none" stroke="#000000" d="M129.9896,-97.8015C134.6504,-87.1853 140.6241,-73.5784 145.8567,-61.6596"/>
<polygon fill="#000000" stroke="#000000" points="149.2176,-62.711 150.0328,-52.1476 142.8081,-59.897 149.2176,-62.711"/>
<text text-anchor="start" x="142" y="-72" font-family="Helvetica,sans-Serif" font-size="10.00" fill="#000000">|forward &#160;&#160;</text>
</g>
<!-- wait_tx_fwd&#45;&gt;wait_rx_valid -->
<g id="edge7" class="edge">
<title>wait_tx_fwd&#45;&gt;wait_rx_valid</title>
<path fill="none" stroke="#000000" d="M182.6881,-52.3195C188.4797,-58.673 193,-66.3898 193,-75 193,-171.5 193,-171.5 193,-171.5 193,-217.7308 257,-207.2692 257,-253.5 257,-321 257,-321 257,-321 257,-333.392 231.6587,-343.4329 205.6412,-350.4763"/>
<polygon fill="#000000" stroke="#000000" points="204.5057,-347.1541 195.688,-353.0276 206.2439,-353.9348 204.5057,-347.1541"/>
<text text-anchor="start" x="230" y="-195" font-family="Helvetica,sans-Serif" font-size="10.00" fill="#000000">tx_fwd_done &#160;&#160;</text>
</g>
</g>
</svg>
