<?xml version="1.0" encoding="UTF-8" standalone="no"?>
<!DOCTYPE svg PUBLIC "-//W3C//DTD SVG 1.1//EN"
 "http://www.w3.org/Graphics/SVG/1.1/DTD/svg11.dtd">
<!-- Generated by graphviz version 2.40.1 (20161225.0304)
 -->
<!-- Title: state transitions Pages: 1 -->
<svg width="191pt" height="774pt"
 viewBox="0.00 0.00 191.00 774.00" xmlns="http://www.w3.org/2000/svg" xmlns:xlink="http://www.w3.org/1999/xlink">
<g id="graph0" class="graph" transform="scale(1 1) rotate(0) translate(4 770)">
<title>state transitions</title>
<polygon fill="#ffffff" stroke="transparent" points="-4,4 -4,-770 187,-770 187,4 -4,4"/>
<g id="clust1" class="cluster">
<title>cluster_UtopiaStatus</title>
<path fill="none" stroke="#000000" stroke-width="2" d="M20,-8C20,-8 163,-8 163,-8 169,-8 175,-14 175,-20 175,-20 175,-746 175,-746 175,-752 169,-758 163,-758 163,-758 20,-758 20,-758 14,-758 8,-752 8,-746 8,-746 8,-20 8,-20 8,-14 14,-8 20,-8"/>
<text text-anchor="start" x="57.1566" y="-739.2" font-family="Helvetica,sans-Serif" font-size="12.00" fill="#000000">UtopiaStatus</text>
</g>
<!-- UtopiaStatus -->
<!-- reset -->
<g id="node2" class="node">
<title>reset</title>
<polygon fill="transparent" stroke="transparent" stroke-width="2" points="110,-720 54,-720 54,-684 110,-684 110,-720"/>
<text text-anchor="start" x="68.6644" y="-698.2" font-family="Helvetica,sans-Serif" font-size="12.00" fill="#000000">reset</text>
<path fill="none" stroke="#000000" stroke-width="2" d="M66.3333,-685C66.3333,-685 97.6667,-685 97.6667,-685 103.3333,-685 109,-690.6667 109,-696.3333 109,-696.3333 109,-707.6667 109,-707.6667 109,-713.3333 103.3333,-719 97.6667,-719 97.6667,-719 66.3333,-719 66.3333,-719 60.6667,-719 55,-713.3333 55,-707.6667 55,-707.6667 55,-696.3333 55,-696.3333 55,-690.6667 60.6667,-685 66.3333,-685"/>
</g>
<!-- soc_frm -->
<g id="node3" class="node">
<title>soc_frm</title>
<polygon fill="transparent" stroke="transparent" stroke-width="2" points="97,-638 33,-638 33,-602 97,-602 97,-638"/>
<text text-anchor="start" x="43.667" y="-616.2" font-family="Helvetica,sans-Serif" font-size="12.00" fill="#000000">soc_frm</text>
<path fill="none" stroke="#000000" stroke-width="2" d="M45.3333,-603C45.3333,-603 84.6667,-603 84.6667,-603 90.3333,-603 96,-608.6667 96,-614.3333 96,-614.3333 96,-625.6667 96,-625.6667 96,-631.3333 90.3333,-637 84.6667,-637 84.6667,-637 45.3333,-637 45.3333,-637 39.6667,-637 34,-631.3333 34,-625.6667 34,-625.6667 34,-614.3333 34,-614.3333 34,-608.6667 39.6667,-603 45.3333,-603"/>
</g>
<!-- reset&#45;&gt;soc_frm -->
<g id="edge1" class="edge">
<title>reset&#45;&gt;soc_frm</title>
<path fill="none" stroke="#000000" d="M78.2271,-683.8015C76.0482,-673.2915 73.2616,-659.8503 70.8085,-648.0177"/>
<polygon fill="#000000" stroke="#000000" points="74.2195,-647.2288 68.7623,-638.1476 67.3653,-648.6499 74.2195,-647.2288"/>
<text text-anchor="middle" x="75.3895" y="-658" font-family="Helvetica,sans-Serif" font-size="10.00" fill="#000000"> </text>
</g>
<!-- vpi_vci -->
<g id="node4" class="node">
<title>vpi_vci</title>
<polygon fill="transparent" stroke="transparent" stroke-width="2" points="81,-556 23,-556 23,-520 81,-520 81,-556"/>
<text text-anchor="start" x="33.6664" y="-534.2" font-family="Helvetica,sans-Serif" font-size="12.00" fill="#000000">vpi_vci</text>
<path fill="none" stroke="#000000" stroke-width="2" d="M35.3333,-521C35.3333,-521 68.6667,-521 68.6667,-521 74.3333,-521 80,-526.6667 80,-532.3333 80,-532.3333 80,-543.6667 80,-543.6667 80,-549.3333 74.3333,-555 68.6667,-555 68.6667,-555 35.3333,-555 35.3333,-555 29.6667,-555 24,-549.3333 24,-543.6667 24,-543.6667 24,-532.3333 24,-532.3333 24,-526.6667 29.6667,-521 35.3333,-521"/>
</g>
<!-- soc_frm&#45;&gt;vpi_vci -->
<g id="edge2" class="edge">
<title>soc_frm&#45;&gt;vpi_vci</title>
<path fill="none" stroke="#000000" d="M62.1149,-601.8015C60.4655,-591.3976 58.3607,-578.1215 56.4988,-566.3768"/>
<polygon fill="#000000" stroke="#000000" points="59.8998,-565.4762 54.8771,-556.1476 52.9861,-566.5723 59.8998,-565.4762"/>
<text text-anchor="start" x="59" y="-576" font-family="Helvetica,sans-Serif" font-size="10.00" fill="#000000">soc &amp;&amp; clav &#160;&#160;</text>
</g>
<!-- vci -->
<g id="node5" class="node">
<title>vci</title>
<polygon fill="transparent" stroke="transparent" stroke-width="2" points="80,-474 24,-474 24,-438 80,-438 80,-474"/>
<text text-anchor="start" x="44.6686" y="-452.2" font-family="Helvetica,sans-Serif" font-size="12.00" fill="#000000">vci</text>
<path fill="none" stroke="#000000" stroke-width="2" d="M36.3333,-439C36.3333,-439 67.6667,-439 67.6667,-439 73.3333,-439 79,-444.6667 79,-450.3333 79,-450.3333 79,-461.6667 79,-461.6667 79,-467.3333 73.3333,-473 67.6667,-473 67.6667,-473 36.3333,-473 36.3333,-473 30.6667,-473 25,-467.3333 25,-461.6667 25,-461.6667 25,-450.3333 25,-450.3333 25,-444.6667 30.6667,-439 36.3333,-439"/>
</g>
<!-- vpi_vci&#45;&gt;vci -->
<g id="edge3" class="edge">
<title>vpi_vci&#45;&gt;vci</title>
<path fill="none" stroke="#000000" d="M52,-519.8015C52,-509.3976 52,-496.1215 52,-484.3768"/>
<polygon fill="#000000" stroke="#000000" points="55.5001,-484.1476 52,-474.1476 48.5001,-484.1476 55.5001,-484.1476"/>
<text text-anchor="start" x="52" y="-494" font-family="Helvetica,sans-Serif" font-size="10.00" fill="#000000">clav &#160;&#160;</text>
</g>
<!-- vci_clp_pt -->
<g id="node6" class="node">
<title>vci_clp_pt</title>
<polygon fill="transparent" stroke="transparent" stroke-width="2" points="90.5,-392 15.5,-392 15.5,-356 90.5,-356 90.5,-392"/>
<text text-anchor="start" x="26.8282" y="-370.2" font-family="Helvetica,sans-Serif" font-size="12.00" fill="#000000">vci_clp_pt</text>
<path fill="none" stroke="#000000" stroke-width="2" d="M27.8333,-357C27.8333,-357 78.1667,-357 78.1667,-357 83.8333,-357 89.5,-362.6667 89.5,-368.3333 89.5,-368.3333 89.5,-379.6667 89.5,-379.6667 89.5,-385.3333 83.8333,-391 78.1667,-391 78.1667,-391 27.8333,-391 27.8333,-391 22.1667,-391 16.5,-385.3333 16.5,-379.6667 16.5,-379.6667 16.5,-368.3333 16.5,-368.3333 16.5,-362.6667 22.1667,-357 27.8333,-357"/>
</g>
<!-- vci&#45;&gt;vci_clp_pt -->
<g id="edge4" class="edge">
<title>vci&#45;&gt;vci_clp_pt</title>
<path fill="none" stroke="#000000" d="M52.2219,-437.8015C52.3488,-427.3976 52.5107,-414.1215 52.6539,-402.3768"/>
<polygon fill="#000000" stroke="#000000" points="56.1564,-402.1896 52.7787,-392.1476 49.1569,-402.1041 56.1564,-402.1896"/>
<text text-anchor="start" x="52" y="-412" font-family="Helvetica,sans-Serif" font-size="10.00" fill="#000000">clav &#160;&#160;</text>
</g>
<!-- hec -->
<g id="node7" class="node">
<title>hec</title>
<polygon fill="transparent" stroke="transparent" stroke-width="2" points="80,-310 24,-310 24,-274 80,-274 80,-310"/>
<text text-anchor="start" x="42.3292" y="-288.2" font-family="Helvetica,sans-Serif" font-size="12.00" fill="#000000">hec</text>
<path fill="none" stroke="#000000" stroke-width="2" d="M36.3333,-275C36.3333,-275 67.6667,-275 67.6667,-275 73.3333,-275 79,-280.6667 79,-286.3333 79,-286.3333 79,-297.6667 79,-297.6667 79,-303.3333 73.3333,-309 67.6667,-309 67.6667,-309 36.3333,-309 36.3333,-309 30.6667,-309 25,-303.3333 25,-297.6667 25,-297.6667 25,-286.3333 25,-286.3333 25,-280.6667 30.6667,-275 36.3333,-275"/>
</g>
<!-- vci_clp_pt&#45;&gt;hec -->
<g id="edge5" class="edge">
<title>vci_clp_pt&#45;&gt;hec</title>
<path fill="none" stroke="#000000" d="M52.7781,-355.8015C52.6512,-345.3976 52.4893,-332.1215 52.3461,-320.3768"/>
<polygon fill="#000000" stroke="#000000" points="55.8431,-320.1041 52.2213,-310.1476 48.8436,-320.1896 55.8431,-320.1041"/>
<text text-anchor="start" x="52" y="-330" font-family="Helvetica,sans-Serif" font-size="10.00" fill="#000000">clav &#160;&#160;</text>
</g>
<!-- payload -->
<g id="node8" class="node">
<title>payload</title>
<polygon fill="transparent" stroke="transparent" stroke-width="2" points="81,-228 17,-228 17,-192 81,-192 81,-228"/>
<text text-anchor="start" x="27.9916" y="-206.2" font-family="Helvetica,sans-Serif" font-size="12.00" fill="#000000">payload</text>
<path fill="none" stroke="#000000" stroke-width="2" d="M29.3333,-193C29.3333,-193 68.6667,-193 68.6667,-193 74.3333,-193 80,-198.6667 80,-204.3333 80,-204.3333 80,-215.6667 80,-215.6667 80,-221.3333 74.3333,-227 68.6667,-227 68.6667,-227 29.3333,-227 29.3333,-227 23.6667,-227 18,-221.3333 18,-215.6667 18,-215.6667 18,-204.3333 18,-204.3333 18,-198.6667 23.6667,-193 29.3333,-193"/>
</g>
<!-- hec&#45;&gt;payload -->
<g id="edge6" class="edge">
<title>hec&#45;&gt;payload</title>
<path fill="none" stroke="#000000" d="M51.3342,-273.8015C50.9536,-263.3976 50.4679,-250.1215 50.0382,-238.3768"/>
<polygon fill="#000000" stroke="#000000" points="53.5273,-238.0129 49.6639,-228.1476 46.532,-238.2689 53.5273,-238.0129"/>
<text text-anchor="start" x="50" y="-248" font-family="Helvetica,sans-Serif" font-size="10.00" fill="#000000">clav &#160;&#160;</text>
</g>
<!-- req -->
<g id="node9" class="node">
<title>req</title>
<polygon fill="transparent" stroke="transparent" stroke-width="2" points="101,-134 45,-134 45,-98 101,-98 101,-134"/>
<text text-anchor="start" x="64.3318" y="-112.2" font-family="Helvetica,sans-Serif" font-size="12.00" fill="#000000">req</text>
<path fill="none" stroke="#000000" stroke-width="2" d="M57.3333,-99C57.3333,-99 88.6667,-99 88.6667,-99 94.3333,-99 100,-104.6667 100,-110.3333 100,-110.3333 100,-121.6667 100,-121.6667 100,-127.3333 94.3333,-133 88.6667,-133 88.6667,-133 57.3333,-133 57.3333,-133 51.6667,-133 46,-127.3333 46,-121.6667 46,-121.6667 46,-110.3333 46,-110.3333 46,-104.6667 51.6667,-99 57.3333,-99"/>
</g>
<!-- payload&#45;&gt;req -->
<g id="edge7" class="edge">
<title>payload&#45;&gt;req</title>
<path fill="none" stroke="#000000" d="M49.2446,-191.8557C49.8132,-180.0144 51.346,-164.3363 55.287,-151 56.0566,-148.3958 57.0162,-145.7536 58.0879,-143.1486"/>
<polygon fill="#000000" stroke="#000000" points="61.2934,-144.5555 62.3215,-134.0106 54.942,-141.6128 61.2934,-144.5555"/>
<text text-anchor="start" x="55" y="-166" font-family="Helvetica,sans-Serif" font-size="10.00" fill="#000000">PayloadIndex==47 &#160;&#160;</text>
<text text-anchor="start" x="55" y="-154" font-family="Helvetica,sans-Serif" font-size="10.00" fill="#000000">clav &#160;&#160;</text>
</g>
<!-- ack -->
<g id="node10" class="node">
<title>ack</title>
<polygon fill="transparent" stroke="transparent" stroke-width="2" points="134,-52 78,-52 78,-16 134,-16 134,-52"/>
<text text-anchor="start" x="96.6646" y="-30.2" font-family="Helvetica,sans-Serif" font-size="12.00" fill="#000000">ack</text>
<path fill="none" stroke="#000000" stroke-width="2" d="M90.3333,-17C90.3333,-17 121.6667,-17 121.6667,-17 127.3333,-17 133,-22.6667 133,-28.3333 133,-28.3333 133,-39.6667 133,-39.6667 133,-45.3333 127.3333,-51 121.6667,-51 121.6667,-51 90.3333,-51 90.3333,-51 84.6667,-51 79,-45.3333 79,-39.6667 79,-39.6667 79,-28.3333 79,-28.3333 79,-22.6667 84.6667,-17 90.3333,-17"/>
</g>
<!-- req&#45;&gt;ack -->
<g id="edge8" class="edge">
<title>req&#45;&gt;ack</title>
<path fill="none" stroke="#000000" d="M80.3238,-97.8015C84.5962,-87.1853 90.0721,-73.5784 94.8687,-61.6596"/>
<polygon fill="#000000" stroke="#000000" points="98.2102,-62.7313 98.6967,-52.1476 91.7163,-60.1178 98.2102,-62.7313"/>
<text text-anchor="middle" x="92.3895" y="-72" font-family="Helvetica,sans-Serif" font-size="10.00" fill="#000000"> </text>
</g>
<!-- ack&#45;&gt;reset -->
<g id="edge9" class="edge">
<title>ack&#45;&gt;reset</title>
<path fill="none" stroke="#000000" d="M134.1541,-46.9921C144.1638,-53.6764 153,-62.9808 153,-75 153,-142.5 153,-142.5 153,-142.5 153,-245.6994 135,-270.8006 135,-374 135,-661 135,-661 135,-661 135,-671.9552 127.828,-680.3986 118.7606,-686.6957"/>
<polygon fill="#000000" stroke="#000000" points="116.8503,-683.7598 110.0519,-691.8859 120.434,-689.7729 116.8503,-683.7598"/>
<text text-anchor="start" x="135" y="-371" font-family="Helvetica,sans-Serif" font-size="10.00" fill="#000000">rxack &#160;&#160;</text>
</g>
</g>
</svg>
