<?xml version="1.0" encoding="UTF-8" standalone="no"?>
<!DOCTYPE svg PUBLIC "-//W3C//DTD SVG 1.1//EN"
 "http://www.w3.org/Graphics/SVG/1.1/DTD/svg11.dtd">
<!-- Generated by graphviz version 2.40.1 (20161225.0304)
 -->
<!-- Title: state transitions Pages: 1 -->
<svg width="178pt" height="856pt"
 viewBox="0.00 0.00 178.00 856.00" xmlns="http://www.w3.org/2000/svg" xmlns:xlink="http://www.w3.org/1999/xlink">
<g id="graph0" class="graph" transform="scale(1 1) rotate(0) translate(4 852)">
<title>state transitions</title>
<polygon fill="#ffffff" stroke="transparent" points="-4,4 -4,-852 174,-852 174,4 -4,4"/>
<g id="clust1" class="cluster">
<title>cluster_UtopiaStatus</title>
<path fill="none" stroke="#000000" stroke-width="2" d="M20,-8C20,-8 150,-8 150,-8 156,-8 162,-14 162,-20 162,-20 162,-828 162,-828 162,-834 156,-840 150,-840 150,-840 20,-840 20,-840 14,-840 8,-834 8,-828 8,-828 8,-20 8,-20 8,-14 14,-8 20,-8"/>
<text text-anchor="start" x="50.6566" y="-821.2" font-family="Helvetica,sans-Serif" font-size="12.00" fill="#000000">UtopiaStatus</text>
</g>
<!-- UtopiaStatus -->
<!-- reset -->
<g id="node2" class="node">
<title>reset</title>
<polygon fill="transparent" stroke="transparent" stroke-width="2" points="127,-802 71,-802 71,-766 127,-766 127,-802"/>
<text text-anchor="start" x="85.6644" y="-780.2" font-family="Helvetica,sans-Serif" font-size="12.00" fill="#000000">reset</text>
<path fill="none" stroke="#000000" stroke-width="2" d="M83.3333,-767C83.3333,-767 114.6667,-767 114.6667,-767 120.3333,-767 126,-772.6667 126,-778.3333 126,-778.3333 126,-789.6667 126,-789.6667 126,-795.3333 120.3333,-801 114.6667,-801 114.6667,-801 83.3333,-801 83.3333,-801 77.6667,-801 72,-795.3333 72,-789.6667 72,-789.6667 72,-778.3333 72,-778.3333 72,-772.6667 77.6667,-767 83.3333,-767"/>
</g>
<!-- ready -->
<g id="node3" class="node">
<title>ready</title>
<polygon fill="transparent" stroke="transparent" stroke-width="2" points="114,-720 58,-720 58,-684 114,-684 114,-720"/>
<text text-anchor="start" x="70.9964" y="-698.2" font-family="Helvetica,sans-Serif" font-size="12.00" fill="#000000">ready</text>
<path fill="none" stroke="#000000" stroke-width="2" d="M70.3333,-685C70.3333,-685 101.6667,-685 101.6667,-685 107.3333,-685 113,-690.6667 113,-696.3333 113,-696.3333 113,-707.6667 113,-707.6667 113,-713.3333 107.3333,-719 101.6667,-719 101.6667,-719 70.3333,-719 70.3333,-719 64.6667,-719 59,-713.3333 59,-707.6667 59,-707.6667 59,-696.3333 59,-696.3333 59,-690.6667 64.6667,-685 70.3333,-685"/>
</g>
<!-- reset&#45;&gt;ready -->
<g id="edge1" class="edge">
<title>reset&#45;&gt;ready</title>
<path fill="none" stroke="#000000" d="M96.1149,-765.8015C94.4655,-755.3976 92.3607,-742.1215 90.4988,-730.3768"/>
<polygon fill="#000000" stroke="#000000" points="93.8998,-729.4762 88.8771,-720.1476 86.9861,-730.5723 93.8998,-729.4762"/>
<text text-anchor="start" x="93" y="-740" font-family="Helvetica,sans-Serif" font-size="10.00" fill="#000000">txreq &#160;&#160;</text>
</g>
<!-- soc_frm -->
<g id="node4" class="node">
<title>soc_frm</title>
<polygon fill="transparent" stroke="transparent" stroke-width="2" points="107,-638 43,-638 43,-602 107,-602 107,-638"/>
<text text-anchor="start" x="53.667" y="-616.2" font-family="Helvetica,sans-Serif" font-size="12.00" fill="#000000">soc_frm</text>
<path fill="none" stroke="#000000" stroke-width="2" d="M55.3333,-603C55.3333,-603 94.6667,-603 94.6667,-603 100.3333,-603 106,-608.6667 106,-614.3333 106,-614.3333 106,-625.6667 106,-625.6667 106,-631.3333 100.3333,-637 94.6667,-637 94.6667,-637 55.3333,-637 55.3333,-637 49.6667,-637 44,-631.3333 44,-625.6667 44,-625.6667 44,-614.3333 44,-614.3333 44,-608.6667 49.6667,-603 55.3333,-603"/>
</g>
<!-- ready&#45;&gt;soc_frm -->
<g id="edge2" class="edge">
<title>ready&#45;&gt;soc_frm</title>
<path fill="none" stroke="#000000" d="M83.5587,-683.8015C82.1631,-673.3976 80.3822,-660.1215 78.8066,-648.3768"/>
<polygon fill="#000000" stroke="#000000" points="82.233,-647.5934 77.4344,-638.1476 75.2951,-648.5242 82.233,-647.5934"/>
<text text-anchor="start" x="81" y="-658" font-family="Helvetica,sans-Serif" font-size="10.00" fill="#000000">clav &#160;&#160;</text>
</g>
<!-- vpi_vci -->
<g id="node5" class="node">
<title>vpi_vci</title>
<polygon fill="transparent" stroke="transparent" stroke-width="2" points="93,-556 35,-556 35,-520 93,-520 93,-556"/>
<text text-anchor="start" x="45.6664" y="-534.2" font-family="Helvetica,sans-Serif" font-size="12.00" fill="#000000">vpi_vci</text>
<path fill="none" stroke="#000000" stroke-width="2" d="M47.3333,-521C47.3333,-521 80.6667,-521 80.6667,-521 86.3333,-521 92,-526.6667 92,-532.3333 92,-532.3333 92,-543.6667 92,-543.6667 92,-549.3333 86.3333,-555 80.6667,-555 80.6667,-555 47.3333,-555 47.3333,-555 41.6667,-555 36,-549.3333 36,-543.6667 36,-543.6667 36,-532.3333 36,-532.3333 36,-526.6667 41.6667,-521 47.3333,-521"/>
</g>
<!-- soc_frm&#45;&gt;vpi_vci -->
<g id="edge3" class="edge">
<title>soc_frm&#45;&gt;vpi_vci</title>
<path fill="none" stroke="#000000" d="M72.5587,-601.8015C71.1631,-591.3976 69.3822,-578.1215 67.8066,-566.3768"/>
<polygon fill="#000000" stroke="#000000" points="71.233,-565.5934 66.4344,-556.1476 64.2951,-566.5242 71.233,-565.5934"/>
<text text-anchor="start" x="70" y="-576" font-family="Helvetica,sans-Serif" font-size="10.00" fill="#000000">clav &#160;&#160;</text>
</g>
<!-- vci -->
<g id="node6" class="node">
<title>vci</title>
<polygon fill="transparent" stroke="transparent" stroke-width="2" points="90,-474 34,-474 34,-438 90,-438 90,-474"/>
<text text-anchor="start" x="54.6686" y="-452.2" font-family="Helvetica,sans-Serif" font-size="12.00" fill="#000000">vci</text>
<path fill="none" stroke="#000000" stroke-width="2" d="M46.3333,-439C46.3333,-439 77.6667,-439 77.6667,-439 83.3333,-439 89,-444.6667 89,-450.3333 89,-450.3333 89,-461.6667 89,-461.6667 89,-467.3333 83.3333,-473 77.6667,-473 77.6667,-473 46.3333,-473 46.3333,-473 40.6667,-473 35,-467.3333 35,-461.6667 35,-461.6667 35,-450.3333 35,-450.3333 35,-444.6667 40.6667,-439 46.3333,-439"/>
</g>
<!-- vpi_vci&#45;&gt;vci -->
<g id="edge4" class="edge">
<title>vpi_vci&#45;&gt;vci</title>
<path fill="none" stroke="#000000" d="M63.5561,-519.8015C63.3024,-509.3976 62.9786,-496.1215 62.6921,-484.3768"/>
<polygon fill="#000000" stroke="#000000" points="66.1855,-484.0592 62.4426,-474.1476 59.1876,-484.23 66.1855,-484.0592"/>
<text text-anchor="start" x="63" y="-494" font-family="Helvetica,sans-Serif" font-size="10.00" fill="#000000">clav &#160;&#160;</text>
</g>
<!-- vci_clp_pt -->
<g id="node7" class="node">
<title>vci_clp_pt</title>
<polygon fill="transparent" stroke="transparent" stroke-width="2" points="93.5,-392 18.5,-392 18.5,-356 93.5,-356 93.5,-392"/>
<text text-anchor="start" x="29.8282" y="-370.2" font-family="Helvetica,sans-Serif" font-size="12.00" fill="#000000">vci_clp_pt</text>
<path fill="none" stroke="#000000" stroke-width="2" d="M30.8333,-357C30.8333,-357 81.1667,-357 81.1667,-357 86.8333,-357 92.5,-362.6667 92.5,-368.3333 92.5,-368.3333 92.5,-379.6667 92.5,-379.6667 92.5,-385.3333 86.8333,-391 81.1667,-391 81.1667,-391 30.8333,-391 30.8333,-391 25.1667,-391 19.5,-385.3333 19.5,-379.6667 19.5,-379.6667 19.5,-368.3333 19.5,-368.3333 19.5,-362.6667 25.1667,-357 30.8333,-357"/>
</g>
<!-- vci&#45;&gt;vci_clp_pt -->
<g id="edge5" class="edge">
<title>vci&#45;&gt;vci_clp_pt</title>
<path fill="none" stroke="#000000" d="M60.6684,-437.8015C59.9071,-427.3976 58.9357,-414.1215 58.0763,-402.3768"/>
<polygon fill="#000000" stroke="#000000" points="61.5484,-401.8655 57.3279,-392.1476 54.5671,-402.3764 61.5484,-401.8655"/>
<text text-anchor="start" x="59" y="-412" font-family="Helvetica,sans-Serif" font-size="10.00" fill="#000000">clav &#160;&#160;</text>
</g>
<!-- hec -->
<g id="node8" class="node">
<title>hec</title>
<polygon fill="transparent" stroke="transparent" stroke-width="2" points="83,-310 27,-310 27,-274 83,-274 83,-310"/>
<text text-anchor="start" x="45.3292" y="-288.2" font-family="Helvetica,sans-Serif" font-size="12.00" fill="#000000">hec</text>
<path fill="none" stroke="#000000" stroke-width="2" d="M39.3333,-275C39.3333,-275 70.6667,-275 70.6667,-275 76.3333,-275 82,-280.6667 82,-286.3333 82,-286.3333 82,-297.6667 82,-297.6667 82,-303.3333 76.3333,-309 70.6667,-309 70.6667,-309 39.3333,-309 39.3333,-309 33.6667,-309 28,-303.3333 28,-297.6667 28,-297.6667 28,-286.3333 28,-286.3333 28,-280.6667 33.6667,-275 39.3333,-275"/>
</g>
<!-- vci_clp_pt&#45;&gt;hec -->
<g id="edge6" class="edge">
<title>vci_clp_pt&#45;&gt;hec</title>
<path fill="none" stroke="#000000" d="M55.7781,-355.8015C55.6512,-345.3976 55.4893,-332.1215 55.3461,-320.3768"/>
<polygon fill="#000000" stroke="#000000" points="58.8431,-320.1041 55.2213,-310.1476 51.8436,-320.1896 58.8431,-320.1041"/>
<text text-anchor="start" x="55" y="-330" font-family="Helvetica,sans-Serif" font-size="10.00" fill="#000000">clav &#160;&#160;</text>
</g>
<!-- payload -->
<g id="node9" class="node">
<title>payload</title>
<polygon fill="transparent" stroke="transparent" stroke-width="2" points="81,-228 17,-228 17,-192 81,-192 81,-228"/>
<text text-anchor="start" x="27.9916" y="-206.2" font-family="Helvetica,sans-Serif" font-size="12.00" fill="#000000">payload</text>
<path fill="none" stroke="#000000" stroke-width="2" d="M29.3333,-193C29.3333,-193 68.6667,-193 68.6667,-193 74.3333,-193 80,-198.6667 80,-204.3333 80,-204.3333 80,-215.6667 80,-215.6667 80,-221.3333 74.3333,-227 68.6667,-227 68.6667,-227 29.3333,-227 29.3333,-227 23.6667,-227 18,-221.3333 18,-215.6667 18,-215.6667 18,-204.3333 18,-204.3333 18,-198.6667 23.6667,-193 29.3333,-193"/>
</g>
<!-- hec&#45;&gt;payload -->
<g id="edge7" class="edge">
<title>hec&#45;&gt;payload</title>
<path fill="none" stroke="#000000" d="M53.6684,-273.8015C52.9071,-263.3976 51.9357,-250.1215 51.0763,-238.3768"/>
<polygon fill="#000000" stroke="#000000" points="54.5484,-237.8655 50.3279,-228.1476 47.5671,-238.3764 54.5484,-237.8655"/>
<text text-anchor="start" x="52" y="-248" font-family="Helvetica,sans-Serif" font-size="10.00" fill="#000000">clav &#160;&#160;</text>
</g>
<!-- ack -->
<g id="node10" class="node">
<title>ack</title>
<polygon fill="transparent" stroke="transparent" stroke-width="2" points="101,-134 45,-134 45,-98 101,-98 101,-134"/>
<text text-anchor="start" x="63.6646" y="-112.2" font-family="Helvetica,sans-Serif" font-size="12.00" fill="#000000">ack</text>
<path fill="none" stroke="#000000" stroke-width="2" d="M57.3333,-99C57.3333,-99 88.6667,-99 88.6667,-99 94.3333,-99 100,-104.6667 100,-110.3333 100,-110.3333 100,-121.6667 100,-121.6667 100,-127.3333 94.3333,-133 88.6667,-133 88.6667,-133 57.3333,-133 57.3333,-133 51.6667,-133 46,-127.3333 46,-121.6667 46,-121.6667 46,-110.3333 46,-110.3333 46,-104.6667 51.6667,-99 57.3333,-99"/>
</g>
<!-- payload&#45;&gt;ack -->
<g id="edge8" class="edge">
<title>payload&#45;&gt;ack</title>
<path fill="none" stroke="#000000" d="M49.2446,-191.8557C49.8132,-180.0144 51.346,-164.3363 55.287,-151 56.0566,-148.3958 57.0162,-145.7536 58.0879,-143.1486"/>
<polygon fill="#000000" stroke="#000000" points="61.2934,-144.5555 62.3215,-134.0106 54.942,-141.6128 61.2934,-144.5555"/>
<text text-anchor="start" x="55" y="-166" font-family="Helvetica,sans-Serif" font-size="10.00" fill="#000000">PayloadIndex==47 &#160;&#160;</text>
<text text-anchor="start" x="55" y="-154" font-family="Helvetica,sans-Serif" font-size="10.00" fill="#000000">clav &#160;&#160;</text>
</g>
<!-- done -->
<g id="node11" class="node">
<title>done</title>
<polygon fill="transparent" stroke="transparent" stroke-width="2" points="128,-52 72,-52 72,-16 128,-16 128,-52"/>
<text text-anchor="start" x="86.6584" y="-30.2" font-family="Helvetica,sans-Serif" font-size="12.00" fill="#000000">done</text>
<path fill="none" stroke="#000000" stroke-width="2" d="M84.3333,-17C84.3333,-17 115.6667,-17 115.6667,-17 121.3333,-17 127,-22.6667 127,-28.3333 127,-28.3333 127,-39.6667 127,-39.6667 127,-45.3333 121.3333,-51 115.6667,-51 115.6667,-51 84.3333,-51 84.3333,-51 78.6667,-51 73,-45.3333 73,-39.6667 73,-39.6667 73,-28.3333 73,-28.3333 73,-22.6667 78.6667,-17 84.3333,-17"/>
</g>
<!-- ack&#45;&gt;done -->
<g id="edge9" class="edge">
<title>ack&#45;&gt;done</title>
<path fill="none" stroke="#000000" d="M78.9922,-97.8015C82.4878,-87.1853 86.9681,-73.5784 90.8926,-61.6596"/>
<polygon fill="#000000" stroke="#000000" points="94.2214,-62.7406 94.0246,-52.1476 87.5726,-60.5513 94.2214,-62.7406"/>
<text text-anchor="middle" x="89.3895" y="-72" font-family="Helvetica,sans-Serif" font-size="10.00" fill="#000000"> </text>
</g>
<!-- done&#45;&gt;reset -->
<g id="edge10" class="edge">
<title>done&#45;&gt;reset</title>
<path fill="none" stroke="#000000" d="M128.0519,-44.1141C140.7649,-50.6673 153,-60.6911 153,-75 153,-142.5 153,-142.5 153,-142.5 153,-172.5033 152,-179.9967 152,-210 152,-347.5 152,-347.5 152,-347.5 152,-377.5033 151,-384.9967 151,-415 151,-743 151,-743 151,-743 151,-753.5417 144.3286,-761.7918 135.765,-768.0394"/>
<polygon fill="#000000" stroke="#000000" points="133.7629,-765.1631 127.1307,-773.4253 137.4677,-771.1024 133.7629,-765.1631"/>
<text text-anchor="middle" x="152.3895" y="-412" font-family="Helvetica,sans-Serif" font-size="10.00" fill="#000000"> </text>
</g>
</g>
</svg>
